<svg version="1.1" viewBox="0.0 0.0 955.0 514.0" fill="none" stroke="none" stroke-linecap="square" stroke-miterlimit="10" xmlns:xlink="http://www.w3.org/1999/xlink" xmlns="http://www.w3.org/2000/svg"><clipPath id="p.0"><path d="m0 0l955.0 0l0 514.0l-955.0 0l0 -514.0z" clip-rule="nonzero"/></clipPath><g clip-path="url(#p.0)"><path fill="#000000" fill-opacity="0.0" d="m0 0l955.0 0l0 514.0l-955.0 0z" fill-rule="evenodd"/><path fill="#ffdd57" d="m546.9444 429.01736l108.72443 0l0 68.37796l-108.72443 0z" fill-rule="evenodd"/><path fill="#000000" d="m264.79086 13.727161l632.72437 0l0 415.30707l-632.72437 0z" fill-rule="evenodd"/><path stroke="#ffdd57" stroke-width="16.0" stroke-linejoin="round" stroke-linecap="butt" d="m264.79086 13.727161l632.72437 0l0 415.30707l-632.72437 0z" fill-rule="evenodd"/><path fill="#ffdd57" d="m410.46432 489.4063l381.70078 0l0 8.031494l-381.70078 0z" fill-rule="evenodd"/><path stroke="#ffdd57" stroke-width="16.0" stroke-linejoin="round" stroke-linecap="butt" d="m410.46432 489.4063l381.70078 0l0 8.031494l-381.70078 0z" fill-rule="evenodd"/><path fill="#000000" d="m840.2756 302.5092l108.72443 0l0 194.89764l-108.72443 0z" fill-rule="evenodd"/><path stroke="#ffdd57" stroke-width="8.0" stroke-linejoin="round" stroke-linecap="butt" d="m840.2756 302.5092l108.72443 0l0 194.89764l-108.72443 0z" fill-rule="evenodd"/><path fill="#ffdd57" d="m844.2493 475.0l100.75592 0l0 22.425201l-100.75592 0z" fill-rule="evenodd"/><path stroke="#ffdd57" stroke-width="16.0" stroke-linejoin="round" stroke-linecap="butt" d="m844.2493 475.0l100.75592 0l0 22.425201l-100.75592 0z" fill-rule="evenodd"/><path fill="#000000" fill-opacity="0.0" d="m282.0013 28.0l601.00793 0l0 174.99213l-601.00793 0z" fill-rule="evenodd"/><path fill="#ffffff" d="m293.78256 53.516876l0 -2.984375l13.796875 5.90625l0 2.28125l-13.796875 5.921875l0 -3.0l10.109375 -3.8125l0.9375 -0.265625l-0.9375 -0.296875l-10.109375 -3.75zm33.171875 16.5625l-14.328125 0l0 -2.359375l14.328125 0l0 2.359375z" fill-rule="nonzero"/><path fill="#ffdd57" d="m48.127567 215.7903l447.02362 0l0 273.60632l-447.02362 0z" fill-rule="evenodd"/><path stroke="#ffdd57" stroke-width="16.0" stroke-linejoin="round" stroke-linecap="butt" d="m48.127567 215.7903l447.02362 0l0 273.60632l-447.02362 0z" fill-rule="evenodd"/><path fill="#ffdd57" d="m10.001311 494.53168l523.27563 0l0 2.8346558l-523.27563 0z" fill-rule="evenodd"/><path stroke="#ffdd57" stroke-width="16.0" stroke-linejoin="round" stroke-linecap="butt" d="m10.001311 494.53168l523.27563 0l0 2.8346558l-523.27563 0z" fill-rule="evenodd"/></g></svg>